<svg xmlns="http://www.w3.org/2000/svg" xmlns:xlink="http://www.w3.org/1999/xlink" width="371" zoomAndPan="magnify" viewBox="0 0 278.25 278.249983" height="371" preserveAspectRatio="xMidYMid meet" version="1.0"><defs><clipPath id="8ac402c864"><path d="M 0 0 L 277.351562 0 L 277.351562 277.351562 L 0 277.351562 Z M 0 0 " clip-rule="nonzero"/></clipPath><clipPath id="00022cb5d0"><path d="M 138.675781 0 C 62.085938 0 0 62.085938 0 138.675781 C 0 215.265625 62.085938 277.351562 138.675781 277.351562 C 215.265625 277.351562 277.351562 215.265625 277.351562 138.675781 C 277.351562 62.085938 215.265625 0 138.675781 0 Z M 138.675781 0 " clip-rule="nonzero"/></clipPath><clipPath id="67db7a3465"><path d="M 0 0 L 277.351562 0 L 277.351562 277.351562 L 0 277.351562 Z M 0 0 " clip-rule="nonzero"/></clipPath><clipPath id="fda77bb832"><path d="M 138.675781 0 C 62.085938 0 0 62.085938 0 138.675781 C 0 215.265625 62.085938 277.351562 138.675781 277.351562 C 215.265625 277.351562 277.351562 215.265625 277.351562 138.675781 C 277.351562 62.085938 215.265625 0 138.675781 0 Z M 138.675781 0 " clip-rule="nonzero"/></clipPath><clipPath id="4f00bba174"><rect x="0" width="278" y="0" height="278"/></clipPath><clipPath id="8d1451ba32"><path d="M 23.421875 22.183594 L 256.40625 22.183594 L 256.40625 255.167969 L 23.421875 255.167969 Z M 23.421875 22.183594 " clip-rule="nonzero"/></clipPath><clipPath id="608c46a662"><path d="M 139.914062 22.183594 C 75.578125 22.183594 23.421875 74.339844 23.421875 138.675781 C 23.421875 203.011719 75.578125 255.167969 139.914062 255.167969 C 204.25 255.167969 256.40625 203.011719 256.40625 138.675781 C 256.40625 74.339844 204.25 22.183594 139.914062 22.183594 Z M 139.914062 22.183594 " clip-rule="nonzero"/></clipPath><clipPath id="6744458827"><path d="M 0.421875 0.183594 L 233.40625 0.183594 L 233.40625 233.167969 L 0.421875 233.167969 Z M 0.421875 0.183594 " clip-rule="nonzero"/></clipPath><clipPath id="5cd61e3216"><path d="M 116.914062 0.183594 C 52.578125 0.183594 0.421875 52.339844 0.421875 116.675781 C 0.421875 181.011719 52.578125 233.167969 116.914062 233.167969 C 181.25 233.167969 233.40625 181.011719 233.40625 116.675781 C 233.40625 52.339844 181.25 0.183594 116.914062 0.183594 Z M 116.914062 0.183594 " clip-rule="nonzero"/></clipPath><clipPath id="810757b245"><rect x="0" width="234" y="0" height="234"/></clipPath><clipPath id="5a8cac7c40"><path d="M 106 125 L 244 125 L 244 194 L 106 194 Z M 106 125 " clip-rule="nonzero"/></clipPath><clipPath id="bed50474ed"><path d="M 99.746094 141.035156 L 237.527344 121.726562 L 246.140625 183.210938 L 108.363281 202.519531 Z M 99.746094 141.035156 " clip-rule="nonzero"/></clipPath><clipPath id="1faaf3100a"><path d="M 99.746094 141.035156 L 237.527344 121.726562 L 246.140625 183.210938 L 108.363281 202.519531 Z M 99.746094 141.035156 " clip-rule="nonzero"/></clipPath><clipPath id="63e01a23a5"><path d="M 70.511719 43.507812 L 206.605469 43.507812 L 206.605469 216.175781 L 70.511719 216.175781 Z M 70.511719 43.507812 " clip-rule="nonzero"/></clipPath></defs><g clip-path="url(#8ac402c864)"><g clip-path="url(#00022cb5d0)"><g transform="matrix(1, 0, 0, 1, 0, 0.000000000000004251)"><g clip-path="url(#4f00bba174)"><g clip-path="url(#67db7a3465)"><g clip-path="url(#fda77bb832)"><path fill="#ffffff" d="M 0 0 L 277.351562 0 L 277.351562 277.351562 L 0 277.351562 Z M 0 0 " fill-opacity="1" fill-rule="nonzero"/></g></g></g></g></g></g><g clip-path="url(#8d1451ba32)"><g clip-path="url(#608c46a662)"><g transform="matrix(1, 0, 0, 1, 23, 22)"><g clip-path="url(#810757b245)"><g clip-path="url(#6744458827)"><g clip-path="url(#5cd61e3216)"><path fill="#000000" d="M 0.421875 0.183594 L 233.40625 0.183594 L 233.40625 233.167969 L 0.421875 233.167969 Z M 0.421875 0.183594 " fill-opacity="1" fill-rule="nonzero"/></g></g></g></g></g></g><g clip-path="url(#5a8cac7c40)"><g clip-path="url(#bed50474ed)"><g clip-path="url(#1faaf3100a)"><path fill="#ffffff" d="M 238.785156 161.320312 C 238.785156 161.320312 207.230469 169.207031 180.4375 192.128906 C 180.4375 192.128906 202.5 174.679688 243.820312 167.902344 Z M 109.25 179.472656 C 109.25 179.472656 141.757812 178.382812 173.820312 193.058594 C 173.820312 193.058594 147.808594 182.34375 106.21875 187.1875 Z M 232.570312 152.851562 C 232.570312 152.851562 202.941406 165.300781 180.171875 190.246094 C 180.171875 190.246094 211.945312 165.070312 237.203125 159.117188 Z M 112.894531 169.625 C 112.894531 169.625 144.804688 173.449219 173.554688 191.171875 C 173.554688 191.171875 136.085938 175.703125 110.164062 176.917969 Z M 178.304688 188.414062 L 173.59375 148.082031 C 173.59375 148.082031 182.589844 131.257812 209.253906 125.722656 L 230.636719 149.382812 C 230.636719 149.382812 202.75 162.320312 178.304688 188.414062 Z M 174.84375 188.898438 L 168.289062 148.828125 C 168.289062 148.828125 155.015625 135.125 127.855469 137.128906 L 113.804688 165.753906 C 113.804688 165.753906 144.167969 170.53125 174.84375 188.898438 Z M 174.84375 188.898438 " fill-opacity="1" fill-rule="evenodd"/></g></g></g><g clip-path="url(#63e01a23a5)"><path fill="#ffffff" d="M 97.402344 54.535156 L 108.105469 75.785156 L 119.753906 98.914062 L 133.097656 97.28125 L 158.839844 94.121094 L 167.410156 77.109375 L 178.109375 55.859375 C 176.191406 54.90625 174.871094 52.929688 174.871094 50.644531 C 174.871094 47.433594 177.476562 44.828125 180.6875 44.828125 C 183.898438 44.828125 186.503906 47.433594 186.503906 50.644531 C 186.503906 53.855469 183.898438 56.460938 180.6875 56.460938 C 180.066406 56.460938 179.46875 56.363281 178.910156 56.183594 L 170.464844 77.710938 L 164.289062 93.453125 L 178.65625 91.691406 C 188.144531 90.527344 196.867188 93.878906 203.117188 100.21875 C 204.484375 101.609375 205.730469 103.132812 206.832031 104.773438 C 203.367188 103.875 199.664062 103.609375 195.835938 104.078125 C 179.957031 106.023438 164.78125 107.886719 150.277344 109.664062 C 136.375 111.371094 123.046875 113.003906 110.261719 114.570312 C 103.105469 115.449219 97.019531 119.886719 92.996094 126.199219 C 89.078125 132.347656 87.09375 140.289062 87.847656 148.59375 C 88.6875 157.804688 89.507812 166.847656 90.3125 175.703125 C 91.105469 184.414062 91.886719 192.972656 92.648438 201.371094 C 93.144531 206.824219 94.972656 211.90625 97.714844 216.175781 C 92.398438 215.117188 87.535156 212.136719 83.722656 207.953125 C 79.234375 203.027344 76.136719 196.34375 75.464844 188.984375 C 74.703125 180.589844 73.925781 172.027344 73.132812 163.316406 C 72.328125 154.460938 71.503906 145.417969 70.667969 136.210938 C 69.914062 127.902344 71.898438 119.964844 75.816406 113.8125 C 79.839844 107.5 85.921875 103.0625 93.078125 102.183594 L 114.152344 99.601562 L 105.046875 76.386719 L 96.601562 54.859375 C 96.042969 55.039062 95.445312 55.136719 94.824219 55.136719 C 91.613281 55.136719 89.007812 52.53125 89.007812 49.320312 C 89.007812 46.109375 91.613281 43.507812 94.824219 43.507812 C 98.035156 43.507812 100.640625 46.109375 100.640625 49.320312 C 100.640625 51.605469 99.320312 53.582031 97.402344 54.535156 " fill-opacity="1" fill-rule="evenodd"/></g></svg>