<svg xmlns="http://www.w3.org/2000/svg" xmlns:xlink="http://www.w3.org/1999/xlink" width="1441" zoomAndPan="magnify" viewBox="0 0 1080.75 270.749989" height="361" preserveAspectRatio="xMidYMid meet" version="1.0"><defs><g/><clipPath id="aedfae8af2"><path d="M 0.375 27.320312 L 233.769531 27.320312 L 233.769531 260.714844 L 0.375 260.714844 Z M 0.375 27.320312 " clip-rule="nonzero"/></clipPath><clipPath id="a65cc3c2b0"><path d="M 117.070312 27.320312 C 52.621094 27.320312 0.375 79.566406 0.375 144.019531 C 0.375 208.46875 52.621094 260.714844 117.070312 260.714844 C 181.519531 260.714844 233.769531 208.46875 233.769531 144.019531 C 233.769531 79.566406 181.519531 27.320312 117.070312 27.320312 Z M 117.070312 27.320312 " clip-rule="nonzero"/></clipPath><clipPath id="209fe5d3f5"><path d="M 0.375 0.320312 L 233.769531 0.320312 L 233.769531 233.714844 L 0.375 233.714844 Z M 0.375 0.320312 " clip-rule="nonzero"/></clipPath><clipPath id="6ce7b782e0"><path d="M 117.070312 0.320312 C 52.621094 0.320312 0.375 52.566406 0.375 117.019531 C 0.375 181.46875 52.621094 233.714844 117.070312 233.714844 C 181.519531 233.714844 233.769531 181.46875 233.769531 117.019531 C 233.769531 52.566406 181.519531 0.320312 117.070312 0.320312 Z M 117.070312 0.320312 " clip-rule="nonzero"/></clipPath><clipPath id="af7c46ba94"><rect x="0" width="234" y="0" height="234"/></clipPath><clipPath id="8025ecede6"><path d="M 83 131 L 222 131 L 222 199 L 83 199 Z M 83 131 " clip-rule="nonzero"/></clipPath><clipPath id="b264e76a83"><path d="M 76.832031 146.382812 L 214.855469 127.039062 L 223.488281 188.632812 L 85.464844 207.972656 Z M 76.832031 146.382812 " clip-rule="nonzero"/></clipPath><clipPath id="6eab77df55"><path d="M 76.832031 146.382812 L 214.855469 127.039062 L 223.488281 188.632812 L 85.464844 207.972656 Z M 76.832031 146.382812 " clip-rule="nonzero"/></clipPath><clipPath id="ab3d1a1374"><path d="M 47.542969 48.679688 L 183.878906 48.679688 L 183.878906 221.65625 L 47.542969 221.65625 Z M 47.542969 48.679688 " clip-rule="nonzero"/></clipPath></defs><g fill="#000000" fill-opacity="1"><g transform="translate(239.834522, 190.238537)"><g><path d="M 76.578125 -114.546875 C 83.679688 -114.546875 90.007812 -112.90625 95.5625 -109.625 C 101.113281 -106.351562 105.441406 -101.859375 108.546875 -96.140625 C 111.648438 -90.429688 113.203125 -84.023438 113.203125 -76.921875 L 113.203125 -74.75 C 113.203125 -67.644531 111.648438 -61.207031 108.546875 -55.4375 C 105.441406 -49.664062 101.113281 -45.140625 95.5625 -41.859375 C 90.007812 -38.585938 83.679688 -36.953125 76.578125 -36.953125 L 49.109375 -36.953125 L 49.109375 0 L 12.3125 0 L 12.3125 -114.546875 Z M 49.109375 -63.765625 L 64.265625 -63.765625 C 68.148438 -63.765625 71.0625 -64.757812 73 -66.75 C 74.945312 -68.75 75.921875 -71.472656 75.921875 -74.921875 L 75.921875 -76.25 C 75.921875 -79.800781 74.945312 -82.546875 73 -84.484375 C 71.0625 -86.429688 68.148438 -87.40625 64.265625 -87.40625 L 49.109375 -87.40625 Z M 49.109375 -63.765625 "/></g></g></g><g fill="#000000" fill-opacity="1"><g transform="translate(360.038061, 190.238537)"><g><path d="M 73.75 0 L 71.59375 -13.3125 C 68.144531 -8.539062 63.617188 -4.796875 58.015625 -2.078125 C 52.410156 0.640625 46.503906 2 40.296875 2 C 30.078125 2 22.414062 -0.828125 17.3125 -6.484375 C 12.207031 -12.148438 9.65625 -20.3125 9.65625 -30.96875 L 9.65625 -87.90625 L 42.78125 -87.90625 L 42.78125 -34.96875 C 42.78125 -31.1875 43.75 -28.15625 45.6875 -25.875 C 47.632812 -23.601562 50.382812 -22.46875 53.9375 -22.46875 C 58.039062 -22.46875 61.367188 -23.800781 63.921875 -26.46875 C 66.484375 -29.132812 67.765625 -32.410156 67.765625 -36.296875 L 67.765625 -87.90625 L 100.890625 -87.90625 L 100.890625 0 Z M 73.75 0 "/></g></g></g><g fill="#000000" fill-opacity="1"><g transform="translate(471.084827, 190.238537)"><g><path d="M 70.59375 -89.90625 C 80.800781 -89.90625 88.457031 -87.070312 93.5625 -81.40625 C 98.664062 -75.75 101.21875 -67.59375 101.21875 -56.9375 L 101.21875 0 L 68.09375 0 L 68.09375 -52.9375 C 68.09375 -56.71875 67.117188 -59.742188 65.171875 -62.015625 C 63.234375 -64.285156 60.488281 -65.421875 56.9375 -65.421875 C 52.832031 -65.421875 49.503906 -64.085938 46.953125 -61.421875 C 44.398438 -58.765625 43.125 -55.492188 43.125 -51.609375 L 43.125 0 L 9.984375 0 L 9.984375 -87.90625 L 37.125 -87.90625 L 39.296875 -74.578125 C 42.734375 -79.242188 47.253906 -82.960938 52.859375 -85.734375 C 58.460938 -88.515625 64.375 -89.90625 70.59375 -89.90625 Z M 70.59375 -89.90625 "/></g></g></g><g fill="#000000" fill-opacity="1"><g transform="translate(582.131604, 190.238537)"><g><path d="M 68.59375 -87.90625 L 68.59375 -65.421875 L 49.9375 -65.421875 L 49.9375 -31.96875 C 49.9375 -27.96875 50.601562 -25.050781 51.9375 -23.21875 C 53.269531 -21.394531 55.710938 -20.484375 59.265625 -20.484375 L 68.59375 -20.484375 L 68.59375 -1 C 65.925781 -0.113281 62.484375 0.601562 58.265625 1.15625 C 54.046875 1.71875 50.382812 2 47.28125 2 C 37.507812 2 29.988281 0.222656 24.71875 -3.328125 C 19.445312 -6.878906 16.8125 -12.925781 16.8125 -21.46875 L 16.8125 -65.421875 L 4.5 -65.421875 L 4.5 -87.90625 L 18.140625 -87.90625 L 25.3125 -114.546875 L 49.9375 -114.546875 L 49.9375 -87.90625 Z M 68.59375 -87.90625 "/></g></g></g><g fill="#000000" fill-opacity="1"><g transform="translate(656.051777, 190.238537)"><g><path d="M 39.453125 -98.5625 L 54.9375 -120.703125 L 86.90625 -120.703125 L 87.234375 -120.03125 L 60.765625 -98.5625 Z M 71.59375 -13.3125 C 68.144531 -8.539062 63.617188 -4.796875 58.015625 -2.078125 C 52.410156 0.640625 46.503906 2 40.296875 2 C 30.078125 2 22.414062 -0.828125 17.3125 -6.484375 C 12.207031 -12.148438 9.65625 -20.3125 9.65625 -30.96875 L 9.65625 -87.90625 L 42.78125 -87.90625 L 42.78125 -34.96875 C 42.78125 -31.1875 43.75 -28.15625 45.6875 -25.875 C 47.632812 -23.601562 50.382812 -22.46875 53.9375 -22.46875 C 58.039062 -22.46875 61.367188 -23.800781 63.921875 -26.46875 C 66.484375 -29.132812 67.765625 -32.410156 67.765625 -36.296875 L 67.765625 -87.90625 L 100.890625 -87.90625 L 100.890625 0 L 73.75 0 Z M 71.59375 -13.3125 "/></g></g></g><g fill="#000000" fill-opacity="1"><g transform="translate(767.098554, 190.238537)"><g><path d="M 53.4375 -89.90625 C 66.875 -89.90625 77.804688 -87.65625 86.234375 -83.15625 C 94.671875 -78.664062 98.890625 -71.367188 98.890625 -61.265625 L 98.890625 -26.96875 C 98.890625 -25.082031 99.332031 -23.53125 100.21875 -22.3125 C 101.113281 -21.09375 102.445312 -20.484375 104.21875 -20.484375 L 110.21875 -20.484375 L 110.21875 -1.328125 C 109.882812 -1.109375 109.019531 -0.75 107.625 -0.25 C 106.238281 0.25 104.269531 0.75 101.71875 1.25 C 99.164062 1.75 96.222656 2 92.890625 2 C 86.453125 2 81.148438 1.03125 76.984375 -0.90625 C 72.828125 -2.851562 69.972656 -5.546875 68.421875 -8.984375 C 64.203125 -5.660156 59.484375 -3 54.265625 -1 C 49.054688 1 42.953125 2 35.953125 2 C 15.316406 2 5 -6.210938 5 -22.640625 C 5 -31.191406 7.300781 -37.710938 11.90625 -42.203125 C 16.507812 -46.703125 23.140625 -49.78125 31.796875 -51.4375 C 40.453125 -53.101562 51.773438 -53.9375 65.765625 -53.9375 L 65.765625 -58.265625 C 65.765625 -61.710938 64.570312 -64.320312 62.1875 -66.09375 C 59.800781 -67.875 56.71875 -68.765625 52.9375 -68.765625 C 49.5 -68.765625 46.53125 -68.148438 44.03125 -66.921875 C 41.539062 -65.703125 40.296875 -63.757812 40.296875 -61.09375 L 40.296875 -60.4375 L 7.65625 -60.4375 C 7.539062 -60.988281 7.484375 -61.765625 7.484375 -62.765625 C 7.484375 -71.085938 11.453125 -77.691406 19.390625 -82.578125 C 27.328125 -87.460938 38.675781 -89.90625 53.4375 -89.90625 Z M 65.765625 -38.296875 C 56.328125 -38.296875 49.359375 -37.265625 44.859375 -35.203125 C 40.367188 -33.148438 38.125 -30.40625 38.125 -26.96875 C 38.125 -21.414062 41.898438 -18.640625 49.453125 -18.640625 C 53.773438 -18.640625 57.570312 -19.804688 60.84375 -22.140625 C 64.125 -24.472656 65.765625 -27.359375 65.765625 -30.796875 Z M 65.765625 -38.296875 "/></g></g></g><g fill="#000000" fill-opacity="1"><g transform="translate(878.145286, 190.238537)"><g><path d="M 11.15625 0 L 11.15625 -120.703125 L 44.28125 -120.703125 L 44.28125 0 Z M 11.15625 0 "/></g></g></g><g fill="#000000" fill-opacity="1"><g transform="translate(933.585438, 190.238537)"><g><path d="M 55.4375 -89.90625 C 70.863281 -89.90625 82.988281 -85.988281 91.8125 -78.15625 C 100.632812 -70.332031 105.046875 -58.929688 105.046875 -43.953125 C 105.046875 -28.960938 100.632812 -17.554688 91.8125 -9.734375 C 82.988281 -1.910156 70.863281 2 55.4375 2 C 40.007812 2 27.910156 -1.882812 19.140625 -9.65625 C 10.378906 -17.425781 6 -28.859375 6 -43.953125 C 6 -59.046875 10.378906 -70.476562 19.140625 -78.25 C 27.910156 -86.019531 40.007812 -89.90625 55.4375 -89.90625 Z M 55.4375 -67.421875 C 44.5625 -67.421875 39.125 -61.148438 39.125 -48.609375 L 39.125 -39.125 C 39.125 -26.695312 44.5625 -20.484375 55.4375 -20.484375 C 66.425781 -20.484375 71.921875 -26.695312 71.921875 -39.125 L 71.921875 -48.609375 C 71.921875 -61.148438 66.425781 -67.421875 55.4375 -67.421875 Z M 55.4375 -67.421875 "/></g></g></g><g clip-path="url(#aedfae8af2)"><g clip-path="url(#a65cc3c2b0)"><g transform="matrix(1, 0, 0, 1, 0.000000000000000056, 27)"><g clip-path="url(#af7c46ba94)"><g clip-path="url(#209fe5d3f5)"><g clip-path="url(#6ce7b782e0)"><path fill="#000000" d="M 0.375 0.320312 L 233.769531 0.320312 L 233.769531 233.714844 L 0.375 233.714844 Z M 0.375 0.320312 " fill-opacity="1" fill-rule="nonzero"/></g></g></g></g></g></g><g clip-path="url(#8025ecede6)"><g clip-path="url(#b264e76a83)"><g clip-path="url(#6eab77df55)"><path fill="#ffffff" d="M 216.117188 166.703125 C 216.117188 166.703125 184.503906 174.601562 157.664062 197.566406 C 157.664062 197.566406 179.769531 180.085938 221.160156 173.296875 Z M 86.351562 184.886719 C 86.351562 184.886719 118.917969 183.796875 151.035156 198.496094 C 151.035156 198.496094 124.980469 187.765625 83.3125 192.617188 Z M 209.890625 158.21875 C 209.890625 158.21875 180.210938 170.691406 157.398438 195.679688 C 157.398438 195.679688 189.230469 170.460938 214.535156 164.492188 Z M 90.003906 175.023438 C 90.003906 175.023438 121.972656 178.851562 150.769531 196.605469 C 150.769531 196.605469 113.234375 181.113281 87.265625 182.328125 Z M 155.53125 193.84375 L 150.8125 153.441406 C 150.8125 153.441406 159.820312 136.589844 186.53125 131.039062 L 207.953125 154.742188 C 207.953125 154.742188 180.019531 167.703125 155.53125 193.84375 Z M 152.0625 194.332031 L 145.496094 154.1875 C 145.496094 154.1875 132.199219 140.460938 104.992188 142.46875 L 90.914062 171.144531 C 90.914062 171.144531 121.332031 175.929688 152.0625 194.332031 Z M 152.0625 194.332031 " fill-opacity="1" fill-rule="evenodd"/></g></g></g><g clip-path="url(#ab3d1a1374)"><path fill="#ffffff" d="M 74.484375 59.726562 L 85.203125 81.015625 L 96.875 104.1875 L 110.242188 102.546875 L 136.03125 99.386719 L 144.613281 82.339844 L 155.332031 61.054688 C 153.414062 60.101562 152.089844 58.121094 152.089844 55.832031 C 152.089844 52.613281 154.699219 50.003906 157.917969 50.003906 C 161.132812 50.003906 163.742188 52.613281 163.742188 55.832031 C 163.742188 59.046875 161.132812 61.65625 157.917969 61.65625 C 157.292969 61.65625 156.695312 61.558594 156.132812 61.378906 L 147.675781 82.945312 L 141.488281 98.714844 L 155.882812 96.949219 C 165.386719 95.785156 174.125 99.140625 180.386719 105.496094 C 181.757812 106.882812 183.003906 108.410156 184.109375 110.054688 C 180.636719 109.15625 176.925781 108.886719 173.09375 109.359375 C 157.183594 111.308594 141.980469 113.175781 127.453125 114.957031 C 113.527344 116.664062 100.171875 118.300781 87.363281 119.871094 C 80.195312 120.75 74.097656 125.199219 70.070312 131.519531 C 66.144531 137.679688 64.15625 145.632812 64.914062 153.957031 C 65.753906 163.179688 66.574219 172.238281 67.382812 181.109375 C 68.175781 189.839844 68.957031 198.414062 69.71875 206.824219 C 70.21875 212.289062 72.050781 217.378906 74.796875 221.65625 C 69.472656 220.59375 64.597656 217.609375 60.78125 213.417969 C 56.285156 208.484375 53.179688 201.789062 52.507812 194.414062 C 51.746094 186.003906 50.964844 177.429688 50.171875 168.703125 C 49.363281 159.832031 48.542969 150.769531 47.703125 141.546875 C 46.945312 133.226562 48.933594 125.273438 52.859375 119.109375 C 56.886719 112.789062 62.984375 108.339844 70.152344 107.464844 L 91.265625 104.875 L 82.144531 81.621094 L 73.683594 60.054688 C 73.121094 60.234375 72.523438 60.332031 71.902344 60.332031 C 68.683594 60.332031 66.074219 57.722656 66.074219 54.507812 C 66.074219 51.289062 68.683594 48.679688 71.902344 48.679688 C 75.117188 48.679688 77.726562 51.289062 77.726562 54.507812 C 77.726562 56.792969 76.40625 58.777344 74.484375 59.726562 " fill-opacity="1" fill-rule="evenodd"/></g></svg>